<svg width="0" height="0" class="hidden">
  <symbol  xmlns="http://www.w3.org/2000/svg" viewBox="0 0 16 16" id="abort">
    <path d="M12.5 12.5L3.5 3.5" ></path>
    <circle cx="8" cy="8" r="6.5" ></circle>
  </symbol>
  <symbol  xmlns="http://www.w3.org/2000/svg" viewBox="0 0 16 16" id="bin">
    <path d="M2 3.5H3.5M14 3.5H12.5M5.5 3.5H10.5M5.5 3.5V2.5C5.5 1.94772 5.94772 1.5 6.5 1.5H9.5C10.0523 1.5 10.5 1.94772 10.5 2.5V3.5M5.5 3.5H3.5M10.5 3.5H12.5M3.5 3.5V13.5C3.5 14.0523 3.94772 14.5 4.5 14.5H11.5C12.0523 14.5 12.5 14.0523 12.5 13.5V3.5" stroke-linecap="round"></path>
    <path d="M6.5 6V12M9.5 6V12"  stroke-linecap="round"></path>
  </symbol>
  <symbol xmlns="http://www.w3.org/2000/svg" viewBox="0 0 16 16" id="checkmark">
    <path d="M7 10L4.5 6L3 7L7 14L14.5 3.5V3L13 2L7 10Z" ></path>
  </symbol>
  <symbol xmlns="http://www.w3.org/2000/svg" viewBox="0 0 16 16" id="dot">
    <circle cx="8" cy="8" r="4" ></circle>
  </symbol>
  <symbol xmlns="http://www.w3.org/2000/svg" viewBox="0 0 16 16" id="filter">
    <path d="M12 4H4V5.5L7 8.5V12L9 13V8.5L12 5.5V4Z" ></path>
  </symbol>
  <symbol  xmlns="http://www.w3.org/2000/svg" viewBox="0 0 16 16" id="locked">
    <path fill-rule="evenodd" clip-rule="evenodd" d="M4 5C4 2.79086 5.79086 1 8 1C10.2091 1 12 2.79086 12 5V7C13.1046 7 14 7.89543 14 9V13C14 14.1046 13.1046 15 12 15H4C2.89543 15 2 14.1046 2 13V9C2 7.89543 2.89543 7 4 7V5ZM10 5V7H6V5C6 3.89543 6.89543 3 8 3C9.10457 3 10 3.89543 10 5Z"></path>
    <path d="M12 5C12 2.8 10.2 1 8 1C5.8 1 4 2.8 4 5L4 9H6V5C6 3.75 7 3 8 3C9 3 10 3.75 10 5V9H12V5Z"></path>
  </symbol>
  <symbol  xmlns="http://www.w3.org/2000/svg" viewBox="0 0 16 16" id="moon">
    <path d="M8 15C12.0269 15 15.5 11.5021 15 7.5C14.7688 10.0468 12.6071 12 10 12C7.23858 12 5 9.76142 5 7C5 4.23858 7.23858 2 10 2C11 2 12 2.5 12 2.5C11 1.5 10 1 8 1C4.13401 1 1 4.13401 1 8C1 11.866 4.13401 15 8 15Z"></path>
  </symbol>
  <symbol  xmlns="http://www.w3.org/2000/svg" viewBox="0 0 16 16" id="pencil">
    <path d="M6 14.5H15"></path>
    <path d="M5 13L1.5 14.5L3 11M5 13L3 11M5 13L12 6M3 11L10 4M11 3L12.5 1.5L14.5 3.5L13 5M11 3L13 5M11 3L10 4M13 5L12 6M12 6L10 4"></path>
  </symbol>
  <symbol  xmlns="http://www.w3.org/2000/svg" viewBox="0 0 16 16" id="refresh">
    <path d="M2.50251 7.5V8.5C2.50251 10.75 4.75251 13.5 8.00251 13.5C10 13.5 11.6187 12.5 12.6 11"></path>
    <path d="M13.5 8.5V7.5C13.5 5.25 11.25 2.5 7.99997 2.5C6 2.5 4.38135 3.5 3.4 5"></path>
    <path d="M4.5 9.5L2.50254 7.5L0.752533 9.75"></path>
    <path d="M11.5 6.5L13.5 8.5L15.25 6.25"></path>
  </symbol>
  <symbol  xmlns="http://www.w3.org/2000/svg" viewBox="0 0 16 16" id="search">
    <path d="M10.0355 10.0355C11.9882 8.08291 11.9882 4.91709 10.0355 2.96447C8.08291 1.01184 4.91709 1.01184 2.96447 2.96447C1.01184 4.91709 1.01184 8.08291 2.96447 10.0355C4.91709 11.9882 8.08291 11.9882 10.0355 10.0355ZM10.0355 10.0355L14 14M14 14L14.5 13.5L11.5 10.5M14 14L13.5 14.5L10.5 11.5"></path>
  </symbol>
  <symbol  xmlns="http://www.w3.org/2000/svg" viewBox="0 0 16 16" id="sun">
    <circle cx="8" cy="8" r="4"></circle>
    <path d="M15 9L16 8L15 7H13V9H15Z"></path>
    <path d="M1 9L0 8L1 7H3V9H1Z"></path>
    <path d="M7 15L8 16L9 15V13H7V15Z"></path>
    <path d="M7 1L8 0L9 1V3H7V1Z"></path>
    <path d="M12.5 14H14L14 12.5L12.5 11L11 12.5L12.5 14Z"></path>
    <path d="M2 3.5L2 2L3.5 2L5 3.5L3.5 5L2 3.5Z"></path>
    <path d="M3.5 14H2L2 12.5L3.5 11L5 12.5L3.5 14Z"></path>
    <path d="M14 3.5V2L12.5 2L11 3.5L12.5 5L14 3.5Z"></path>
  </symbol>
  <symbol  xmlns="http://www.w3.org/2000/svg" viewBox="0 0 16 16" id="v_arrow">
    <path d="M5 6H11V6.5L8.25 11H7.75L5 6.5V6Z"></path>
  </symbol>
  <symbol  xmlns="http://www.w3.org/2000/svg" viewBox="0 0 16 16" id="x-large">
    <path d="M1 15L15 1M1 1L15 15"></path>
  </symbol>
  <symbol  xmlns="http://www.w3.org/2000/svg" viewBox="0 0 16 16" id="x-medium">
    <path d="M12.5 3.5L3.5 12.5M3.5 3.5L12.5 12.5"></path>
  </symbol>
</svg>